<?xml version="1.0" standalone="no"?>
<!DOCTYPE svg PUBLIC "-//W3C//DTD SVG 20010904//EN"
 "http://www.w3.org/TR/2001/REC-SVG-20010904/DTD/svg10.dtd">
<svg version="1.0" xmlns="http://www.w3.org/2000/svg"
 width="500.000000pt" height="500.000000pt" viewBox="0 0 500.000000 500.000000"
 preserveAspectRatio="xMidYMid meet">
<metadata>
Created by potrace 1.11, written by Peter Selinger 2001-2013
</metadata>
<g transform="translate(0.000000,500.000000) scale(0.100000,-0.100000)"
fill="#000000" stroke="none">
<path d="M3036 3348 c-106 -110 -244 -257 -476 -509 -134 -146 -137 -149 -157
-149 -10 0 -80 60 -155 133 -75 72 -201 193 -280 267 -78 74 -174 165 -213
202 -95 92 -107 91 -200 -6 -38 -40 -110 -117 -160 -172 -49 -54 -113 -123
-142 -154 -28 -30 -80 -86 -115 -125 -36 -38 -150 -162 -254 -275 -103 -113
-193 -210 -199 -216 -22 -24 -191 -208 -205 -225 -16 -18 -193 -208 -245 -264
-16 -17 -68 -73 -115 -125 -47 -51 -91 -99 -98 -106 -15 -15 -16 -50 -1 -59
21 -14 61 7 141 72 46 37 88 71 95 77 6 6 33 29 59 51 68 57 613 522 649 554
179 159 642 549 663 558 39 16 66 2 225 -120 76 -59 183 -139 237 -179 55 -40
102 -81 106 -91 7 -22 -13 -53 -85 -131 -31 -34 -94 -104 -141 -156 -47 -52
-109 -121 -139 -155 -30 -33 -57 -62 -60 -65 -3 -3 -24 -25 -45 -50 -22 -25
-76 -85 -120 -134 -100 -109 -112 -129 -90 -150 8 -9 19 -16 23 -16 24 0 148
103 606 504 93 82 184 155 202 162 80 34 106 21 359 -173 326 -251 588 -444
611 -449 27 -7 37 0 47 32 5 18 -41 67 -290 310 -398 387 -452 442 -459 464
-10 32 21 70 134 163 58 48 122 102 142 120 20 17 69 61 110 97 41 36 83 73
93 82 26 24 75 32 109 19 24 -9 63 -35 112 -74 5 -4 125 -93 265 -198 140
-104 266 -198 280 -209 425 -323 966 -726 1034 -772 76 -50 91 -57 98 -44 5 9
6 25 3 36 -7 24 -232 247 -735 730 -106 102 -222 214 -259 249 -74 71 -463
447 -640 619 -134 131 -148 142 -192 149 -30 4 -39 -2 -133 -99z"/>
</g>
</svg>
