<?xml version="1.0" encoding="utf-8"?>
<!-- Generator: Adobe Illustrator 20.0.0, SVG Export Plug-In . SVG Version: 6.00 Build 0)  -->
<svg version="1.1" id="Layer_1" xmlns="http://www.w3.org/2000/svg" xmlns:xlink="http://www.w3.org/1999/xlink" x="0px" y="0px"
	 viewBox="0 0 960 560" style="enable-background:new 0 0 960 560;" xml:space="preserve">
<style type="text/css">
	.st0{fill:#0400C7;}
	.st1{fill:#0400C7;stroke:#000000;stroke-miterlimit:10;}
	.st2{fill:#0400C7;stroke:#000000;stroke-width:0.5;stroke-miterlimit:10;}
</style>
<g>
	<g>
		<path class="st0" d="M576.1,279.9c-5.4-5.3-10.7-10.5-16.1-15.7c-8.4-8.1-16.8-16.2-25.2-24.3c-4.4-4.3-8.8-8.6-13.3-12.8
			c-0.6-0.5-2.2-0.8-2.6-0.5c-1.9,1.6-3.5,3.5-5.2,5.3c-5.4,5.8-10.7,11.5-16.1,17.3c-1.2,1.3-2.1,1.1-3.3-0.1c-2.9-2.9-6-5.8-9-8.7
			c-3.6-3.4-7.2-6.9-11.2-10.5c-0.3-0.3-0.5-0.5-0.8-0.8c-0.5-0.1-1.2,0.1-1.8,0.4c-0.1,0.1-0.2,0.2-0.3,0.4
			c-16.6,18.1-33,35.9-49.4,53.7c0,0.2,0,0.3,0,0.5c0.1,0.1,0.2,0.3,0.4,0.4c0.1,0,0.3,0,0.4,0c0.7-0.4,1.4-0.7,1.9-1.1
			c2.6-2.2,5.3-4.4,7.9-6.6c12.7-10.9,25.4-21.7,38.1-32.6c1.5-1.3,3-1.4,4.6-0.1c4.5,3.5,9,7,13.6,10.3c1.9,1.3,1.8,2.3,0.5,3.9
			c-4.5,5-9,10-13.5,15c-2.4,2.6-4.8,5.3-7.1,8c-0.1,0.3,0,0.6,0.1,0.8c0.1,0.1,0.2,0.2,0.4,0.2c0.6-0.2,1.2-0.4,1.6-0.7
			c7.3-6.2,14.5-12.5,21.7-18.8c2.5-2.1,4.8-2.2,7.4-0.2c7.5,5.7,14.9,11.4,22.5,17c0.7,0.6,1.6,1,2.4,1.5c0.2,0,0.5,0,0.7,0
			c0.1-0.2,0.2-0.4,0.3-0.6c0.1-0.2,0.1-0.5,0.1-0.7c-0.1-0.2-0.3-0.3-0.4-0.5c-6.8-6.7-13.6-13.3-20.5-19.9
			c-3.5-3.4-3.5-4.2,0.2-7.2c4-3.3,8-6.7,11.9-10.2c2-1.9,3.9-1.7,5.9-0.3c6.9,5.1,13.8,10.3,20.7,15.5c8.9,6.7,17.7,13.4,26.6,20
			c2.1,1.5,4.2,2.9,6.4,4.4c0,0,0.1,0,0.1,0c0.1-0.1,0.1-0.2,0.2-0.3C576.6,280.6,576.4,280.2,576.1,279.9z"/>
		<path d="M422.6,284.9l-0.1,0c-0.1,0-0.3,0-0.4,0l-0.1,0l-0.5-0.7l0-0.1c0-0.2,0-0.3,0-0.5l0-0.2l0.1-0.1l49.8-54.1l0.1,0
			c0.8-0.4,1.5-0.5,2-0.4l0.1,0l3.3,3.2c3,2.8,5.9,5.5,8.7,8.3c2.9,2.8,6,5.7,9,8.7c0.6,0.6,1.1,0.9,1.5,0.9c0.4,0,0.8-0.3,1.3-0.8
			c4.9-5.3,9.9-10.7,14.8-16l1.3-1.4c0.4-0.4,0.7-0.8,1-1.1c1.3-1.4,2.6-2.9,4.1-4.2c0.6-0.5,2.5-0.2,3.1,0.5c3,2.8,5.9,5.7,8.8,8.5
			c1.5,1.5,3,2.9,4.5,4.4c3.8,3.7,7.6,7.3,11.4,11c4.6,4.4,9.2,8.8,13.8,13.3c5,4.8,10.1,9.8,15,14.6l1.2,1.1
			c0.4,0.4,0.6,0.9,0.6,1.6v0.1l-0.1,0.1c-0.1,0.1-0.1,0.3-0.2,0.4l-0.1,0.2l-0.5-0.1c-0.6-0.4-1.2-0.8-1.8-1.2
			c-1.5-1-3.1-2.1-4.6-3.2c-5.3-4-10.6-8-15.9-11.9c-3.6-2.7-7.1-5.4-10.7-8.1l-0.2-0.2c-6.7-5-13.6-10.2-20.5-15.3
			c-2-1.5-3.6-1.4-5.4,0.2c-4,3.7-8.1,7.1-11.9,10.2c-1.7,1.4-2.6,2.3-2.6,3.2c0,0.9,0.9,2,2.5,3.5c6.9,6.6,13.8,13.4,20.5,19.9
			c0.1,0.1,0.2,0.2,0.3,0.4l0.2,0.2l0,0.1c0,0.3,0,0.6-0.1,0.9c-0.1,0.3-0.2,0.5-0.3,0.7l-0.1,0.2l-0.2,0c-0.2,0-0.5,0-0.7,0l-0.2,0
			c-0.8-0.5-1.6-1-2.4-1.5c-8.3-6.2-16.3-12.4-22.5-17c-2.4-1.9-4.7-1.8-7,0.2c-8.3,7.2-15.2,13.2-21.7,18.8c-0.4,0.4-1,0.6-1.5,0.7
			l-0.3,0.1l-0.1,0c-0.2,0-0.5-0.1-0.6-0.3c-0.2-0.3-0.3-0.6-0.2-1.1l0-0.1l2.1-2.3c1.7-1.9,3.4-3.8,5.1-5.8l1.2-1.3
			c4.1-4.6,8.2-9.1,12.4-13.7c0.7-0.7,0.9-1.3,0.9-1.7c-0.1-0.5-0.5-1-1.3-1.6c-4.5-3.2-9-6.7-13.3-10l-0.4-0.3
			c-1.5-1.1-2.7-1.1-4.1,0.1l-14.1,12.1c-8,6.8-16,13.7-24,20.5c-2.9,2.5-5.5,4.7-7.9,6.6c-0.5,0.4-1,0.7-1.6,1L422.6,284.9z
			 M422.3,284.1c0,0,0.1,0,0.1,0l0.3-0.2c0.5-0.3,1-0.5,1.4-0.9c2.4-1.9,4.9-4.1,7.9-6.6c8-6.8,16-13.7,24-20.5l14.1-12.1
			c1.7-1.4,3.4-1.5,5.1-0.1l0.4,0.3c4.3,3.3,8.7,6.8,13.2,10c1,0.7,1.5,1.4,1.6,2.1c0.1,0.7-0.3,1.4-1.1,2.3
			c-4.1,4.5-8.2,9.1-12.4,13.7l-1.2,1.3c-1.7,1.9-3.4,3.8-5.1,5.8l-1.9,2.1c0,0.2,0,0.4,0.1,0.4c0,0,0,0,0.1,0l0.1,0
			c0.5-0.2,1-0.3,1.3-0.6c6.5-5.6,13.4-11.6,21.7-18.8c2.6-2.3,5.2-2.3,7.9-0.3c6.1,4.7,14.2,10.8,22.5,17c0.7,0.5,1.5,1,2.3,1.5
			c0.1,0,0.2,0,0.4,0c0.1-0.1,0.1-0.2,0.1-0.3c0-0.1,0.1-0.3,0.1-0.5l0,0c-0.1-0.1-0.2-0.2-0.3-0.3c-6.7-6.5-13.6-13.3-20.5-19.9
			c-1.8-1.8-2.8-2.9-2.7-4.1c0-1.2,1-2.2,2.9-3.7c3.8-3.1,7.9-6.6,11.8-10.2c2-1.9,4.1-2,6.4-0.3c6.9,5.1,13.8,10.3,20.5,15.3
			l0.2,0.2c3.6,2.7,7.1,5.4,10.7,8.1c5.3,4,10.6,8,15.9,11.9c1.5,1.1,3,2.2,4.6,3.2c0.5,0.3,1,0.7,1.5,1c0-0.4-0.2-0.6-0.4-0.9
			l-1.1-1.1c-4.9-4.8-10-9.8-15-14.6c-4.6-4.4-9.2-8.8-13.8-13.3c-3.8-3.7-7.6-7.3-11.4-11c-1.5-1.5-3-2.9-4.5-4.4
			c-2.9-2.8-5.8-5.7-8.8-8.5c-0.5-0.5-1.9-0.7-2.1-0.4c-1.5,1.2-2.8,2.7-4.1,4.1c-0.3,0.4-0.7,0.8-1.1,1.1l-1.3,1.4
			c-4.9,5.2-9.9,10.4-14.8,15.7c-0.6,0.7-1.2,0.8-1.8,0.8c0,0,0,0,0,0c-0.6,0-1.3-0.1-2-0.8c-3-3-6.1-5.8-9-8.6
			c-2.8-2.7-5.7-5.4-8.7-8.2l-3.2-2.9c-0.4,0-0.9,0.1-1.5,0.4l-49.6,53.9c0,0.1,0,0.1,0,0.2L422.3,284.1z"/>
	</g>
</g>
<g>
	<path class="st1" d="M413.5,286.5v29h-3v-21.3c0-0.3-0.2-0.6-0.1-0.9c0-0.3,0-0.7,0-1l-10.2,18.4c-0.3,0.6-0.8,0.8-1.5,0.8h-0.6
		c-0.6,0-1.1-0.2-1.4-0.8l-10.3-18.5c0.1,0.7,0.2,1.4,0.2,2.1v21.3h-4v-29h3.4c0.4,0,0.6,0,0.8,0s0.4,0.2,0.6,0.5l10.2,18.2
		c0.2,0.3,0.3,0.7,0.5,1c0.2,0.4,0.3,0.7,0.4,1.1c0.1-0.4,0.3-0.7,0.4-1.1c0.2-0.4,0.3-0.7,0.5-1l10-18.2c0.2-0.3,0.3-0.5,0.5-0.5
		s0.5,0,0.8,0H413.5z"/>
	<path class="st1" d="M422.5,315.5h-2v-20h2V315.5z"/>
	<path class="st1" d="M439.5,313.5v2h-11v-20h2v18H439.5z"/>
	<path class="st1" d="M455.7,313.5l0,2h-13.2v-20h13v2h-10v7h8v2h-8v7H455.7z"/>
	<path class="st2" d="M470.2,298.5c-0.1,0.1-0.2,0.3-0.3,0.3s-0.2,0.1-0.4,0.1c-0.2,0-0.4-0.1-0.6-0.2c-0.2-0.2-0.5-0.3-0.8-0.5
		c-0.3-0.2-0.7-0.4-1.2-0.5c-0.5-0.2-1-0.2-1.7-0.2c-0.6,0-1.2,0.1-1.7,0.3c-0.5,0.2-0.9,0.4-1.2,0.7c-0.3,0.3-0.6,0.6-0.7,1
		s-0.2,0.8-0.2,1.3c0,0.6,0.1,1.1,0.4,1.4c0.3,0.4,0.7,0.7,1.1,1c0.5,0.3,1,0.5,1.6,0.7c0.6,0.2,1.2,0.4,1.8,0.6
		c0.6,0.2,1.2,0.5,1.8,0.7c0.6,0.3,1.1,0.6,1.6,1c0.5,0.4,0.8,0.9,1.1,1.5c0.3,0.6,0.4,1.3,0.4,2.2c0,0.9-0.2,1.8-0.5,2.5
		c-0.3,0.8-0.8,1.5-1.3,2.1c-0.6,0.6-1.3,1-2.2,1.4c-0.9,0.3-1.8,0.5-2.9,0.5c-1.3,0-2.6-0.2-3.7-0.7c-1.1-0.5-2-1.1-2.8-2l0.8-1.3
		c0.1-0.1,0.2-0.2,0.3-0.3c0.1-0.1,0.2-0.1,0.4-0.1c0.1,0,0.3,0.1,0.4,0.2s0.3,0.2,0.5,0.4c0.2,0.2,0.4,0.3,0.7,0.5
		c0.3,0.2,0.6,0.4,0.9,0.5s0.7,0.3,1.1,0.4c0.4,0.1,0.9,0.2,1.4,0.2c0.7,0,1.3-0.1,1.8-0.3s1-0.4,1.3-0.8s0.6-0.7,0.8-1.2
		s0.3-1,0.3-1.5c0-0.6-0.1-1.1-0.4-1.5s-0.7-0.7-1.1-1c-0.5-0.3-1-0.5-1.6-0.7c-0.6-0.2-1.2-0.4-1.8-0.6s-1.2-0.4-1.8-0.7
		c-0.6-0.3-1.1-0.6-1.6-1c-0.5-0.4-0.8-0.9-1.1-1.6c-0.3-0.6-0.4-1.4-0.4-2.3c0-0.7,0.1-1.4,0.4-2.1c0.3-0.7,0.7-1.3,1.2-1.8
		s1.2-1,2-1.3c0.8-0.3,1.7-0.5,2.7-0.5c1.2,0,2.2,0.2,3.2,0.5c0.9,0.4,1.8,0.9,2.5,1.6L470.2,298.5z"/>
	<path class="st1" d="M489.5,297.5h-7v18h-3v-18h-6v-2h16V297.5z"/>
	<path class="st2" d="M510.5,305.6c0,1.5-0.2,3-0.7,4.3c-0.5,1.3-1.2,2.4-2.1,3.3c-0.9,0.9-2,1.7-3.2,2.2c-1.3,0.5-2.6,0.8-4.2,0.8
		c-1.5,0-2.9-0.3-4.2-0.8s-2.3-1.2-3.2-2.2c-0.9-0.9-1.6-2-2.1-3.3c-0.5-1.3-0.7-2.7-0.7-4.3s0.2-3,0.7-4.3c0.5-1.3,1.2-2.4,2.1-3.3
		c0.9-0.9,2-1.7,3.2-2.2s2.6-0.8,4.2-0.8c1.5,0,2.9,0.3,4.2,0.8c1.3,0.5,2.3,1.2,3.2,2.2c0.9,0.9,1.6,2.1,2.1,3.3
		C510.3,302.6,510.5,304,510.5,305.6z M507.6,305.6c0-1.3-0.2-2.4-0.5-3.4c-0.3-1-0.8-1.9-1.5-2.6c-0.6-0.7-1.4-1.2-2.3-1.6
		s-1.9-0.6-3-0.6c-1.1,0-2.1,0.2-3,0.6s-1.7,0.9-2.3,1.6s-1.1,1.6-1.5,2.6c-0.3,1-0.5,2.1-0.5,3.4c0,1.3,0.2,2.4,0.5,3.4
		c0.3,1,0.8,1.9,1.5,2.6c0.6,0.7,1.4,1.2,2.3,1.6c0.9,0.4,1.9,0.6,3,0.6c1.1,0,2.1-0.2,3-0.6c0.9-0.4,1.7-0.9,2.3-1.6
		c0.6-0.7,1.1-1.5,1.5-2.6C507.5,308,507.6,306.9,507.6,305.6z"/>
	<path class="st1" d="M531.5,295.5v20h-1.6c-0.2,0-0.4,0.2-0.6,0.1s-0.3-0.1-0.4-0.3l-12-15.5c0,0.2-0.2,0.5-0.2,0.7
		c0,0.2-0.2,0.5-0.2,0.7v14.3h-2v-20h1.4c0.1,0,0.2-0.1,0.3-0.1c0.1,0,0.2,0,0.2,0c0.1,0,0.1,0.1,0.2,0.1c0.1,0.1,0.1,0.1,0.2,0.2
		l12,15.6c0-0.2-0.2-0.5-0.2-0.7s-0.2-0.5-0.2-0.7v-14.4H531.5z"/>
	<path class="st1" d="M549.3,313.5l0,2h-12.8v-20h13v2h-10v7h8v2h-8v7H549.3z"/>
	<path class="st2" d="M585.6,309.8c0.2,0,0.4,0.1,0.6,0.3l1.6,1.7c-1.2,1.4-2.7,2.5-4.4,3.3c-1.7,0.8-3.8,1.2-6.3,1.2
		c-2.1,0-4-0.4-5.8-1.1c-1.7-0.7-3.2-1.8-4.4-3.1c-1.2-1.3-2.2-2.9-2.8-4.8c-0.7-1.9-1-3.9-1-6.1c0-2.2,0.4-4.3,1.1-6.1
		c0.7-1.9,1.7-3.4,3-4.8c1.3-1.3,2.8-2.4,4.6-3.1s3.7-1.1,5.9-1.1c2.1,0,4,0.3,5.6,1c1.6,0.7,3,1.6,4.2,2.7l-1.3,1.8
		c-0.1,0.1-0.2,0.3-0.3,0.3c-0.1,0.1-0.3,0.1-0.5,0.1c-0.2,0-0.5-0.1-0.9-0.4c-0.4-0.3-0.8-0.6-1.4-0.9c-0.6-0.3-1.3-0.6-2.2-0.9
		c-0.9-0.3-1.9-0.4-3.2-0.4c-1.5,0-2.9,0.3-4.2,0.8c-1.3,0.5-2.4,1.3-3.3,2.3s-1.6,2.2-2.1,3.7c-0.5,1.4-0.8,3.1-0.8,4.9
		c0,1.8,0.3,3.5,0.8,4.9c0.5,1.4,1.3,2.7,2.2,3.7c0.9,1,2,1.8,3.2,2.3c1.2,0.5,2.6,0.8,4,0.8c0.9,0,1.7-0.1,2.4-0.2
		c0.7-0.1,1.4-0.3,2-0.5c0.6-0.2,1.2-0.5,1.7-0.8c0.5-0.3,1-0.7,1.5-1.2C585.2,309.9,585.4,309.8,585.6,309.8z"/>
	<path class="st1" d="M596.5,289.5v10h12v4h-12v12h-4v-29h18v3H596.5z"/>
	<path class="st2" d="M642.8,301.2c0,2.2-0.4,4.2-1.1,6.1c-0.7,1.8-1.7,3.4-3,4.8c-1.3,1.3-2.8,2.4-4.6,3.1
		c-1.8,0.7-3.8,1.1-5.9,1.1c-2.2,0-4.2-0.4-5.9-1.1c-1.8-0.7-3.3-1.8-4.6-3.1c-1.3-1.3-2.3-2.9-3-4.8c-0.7-1.8-1.1-3.9-1.1-6.1
		c0-2.2,0.4-4.2,1.1-6.1c0.7-1.8,1.7-3.4,3-4.8c1.3-1.3,2.8-2.4,4.6-3.1s3.8-1.1,5.9-1.1c2.2,0,4.2,0.4,5.9,1.1s3.3,1.8,4.6,3.1
		c1.3,1.3,2.3,2.9,3,4.8C642.4,296.9,642.8,299,642.8,301.2z M638.7,301.2c0-1.8-0.2-3.4-0.7-4.9c-0.5-1.4-1.2-2.7-2.1-3.7
		c-0.9-1-2-1.8-3.3-2.3s-2.7-0.8-4.3-0.8c-1.6,0-3,0.3-4.3,0.8c-1.3,0.5-2.4,1.3-3.3,2.3c-0.9,1-1.6,2.2-2.1,3.7
		c-0.5,1.4-0.7,3.1-0.7,4.9c0,1.8,0.2,3.4,0.7,4.9c0.5,1.4,1.2,2.7,2.1,3.6s2,1.8,3.3,2.3c1.3,0.5,2.7,0.8,4.3,0.8
		c1.6,0,3-0.3,4.3-0.8s2.4-1.3,3.3-2.3c0.9-1,1.6-2.2,2.1-3.6C638.4,304.6,638.7,303,638.7,301.2z"/>
</g>
</svg>
